<svg xmlns="http://www.w3.org/2000/svg" viewBox="0 0 223.18 216.48"><defs><style>.cls-1{fill:#004853;}.cls-2{fill:#00b9bd;}</style></defs><g id="Capa_2" data-name="Capa 2"><g id="Capa_1-2" data-name="Capa 1"><path class="cls-1" d="M148.81,70.46v-29a7.34,7.34,0,1,0-6.3.3V70.51a7.36,7.36,0,1,0,6.3-.05ZM142.2,35a3.16,3.16,0,0,1,6.31,0c0,.12,0,.22,0,.33h0a3.24,3.24,0,0,1-.33,1.11h0a3.21,3.21,0,0,1-.29.46l0,0c-.11.13-.22.25-.34.37l-.1.08a2.78,2.78,0,0,1-.34.26l-.2.11-.31.16-.32.1-.24.07a3.18,3.18,0,0,1-.62.06,2.6,2.6,0,0,1-.56-.06l-.17,0-.37-.11-.17-.07a2.22,2.22,0,0,1-.43-.23l-.22-.16-.18-.15c-.08-.07-.15-.15-.23-.23l-.09-.11a3.62,3.62,0,0,1-.42-.65h0A3.19,3.19,0,0,1,142.2,35Zm3.51,45.31a3.16,3.16,0,1,1,3.16-3.15A3.15,3.15,0,0,1,145.71,80.27Z"/><path class="cls-1" d="M102.72,106.46V41.9a7.35,7.35,0,1,0-6.3,0v64.56a7.36,7.36,0,1,0,6.3,0Zm-6.3,6.63a3.16,3.16,0,1,1,3.15,3.16A3.15,3.15,0,0,1,96.42,113.09Zm6.31-77.83a3,3,0,0,1-6,.35h-.27c0-.12,0-.23,0-.35a3.16,3.16,0,0,1,6.31,0Z"/><path class="cls-1" d="M41,35.26a7.36,7.36,0,0,0-7.46-7.35,7.46,7.46,0,0,0-7.25,7.25,7.36,7.36,0,0,0,7.35,7.46A7.17,7.17,0,0,0,35,42.48L49.14,62.6a8.5,8.5,0,0,1,1.54,4.87v78.09a8.53,8.53,0,0,1-2,5.46L33.55,169V99.63A7.34,7.34,0,0,0,37.65,92a7.36,7.36,0,1,0-10.39,7.68v75.19A7.34,7.34,0,0,0,23,181.77a7.45,7.45,0,0,0,7.22,7.1,7.37,7.37,0,0,0,7.48-7.36,7.29,7.29,0,0,0-2.12-5.15l19.38-23a8.49,8.49,0,0,0,2-5.47V65.48a8.5,8.5,0,0,0-1.54-4.87L40.09,38.74A7.28,7.28,0,0,0,41,35.26Zm-10.6,54.6A3.16,3.16,0,1,1,27.21,93,3.16,3.16,0,0,1,30.37,89.86Zm0,94.81a3.16,3.16,0,1,1,3.15-3.16A3.17,3.17,0,0,1,30.37,184.67Zm.09-149.41a3.14,3.14,0,0,1,5.57-2h0a3.19,3.19,0,0,1,.3.42l0,0a3.42,3.42,0,0,1,.21.43c0,.06,0,.12,0,.18a2.3,2.3,0,0,1,.1.35,2.78,2.78,0,0,1,.06.58,3.17,3.17,0,0,1-3.16,3.16,2.76,2.76,0,0,1-.57-.06,1.11,1.11,0,0,1-.26-.07l-.25-.07-.34-.16L32.08,38c-.13-.08-.25-.15-.37-.24A3.17,3.17,0,0,1,30.46,35.26Z"/><path class="cls-1" d="M68.47,33.93a7.34,7.34,0,0,0,4.08,7.64v78.49a3.69,3.69,0,0,0,1.06,2.59l21.56,22a3.69,3.69,0,0,1,1.06,2.59v27.58A7.34,7.34,0,0,0,92,181.77a7.45,7.45,0,0,0,7.22,7.1,7.35,7.35,0,0,0,3.31-14V144.71a3.72,3.72,0,0,0-1-2.59l-21.57-22a3.72,3.72,0,0,1-1.05-2.59V41.62a7.35,7.35,0,1,0-10.38-7.69ZM96.18,181.51a3.16,3.16,0,1,1,3.16,3.16A3.16,3.16,0,0,1,96.18,181.51ZM78.91,35a3.93,3.93,0,0,1-.06.6c0,.11-.06.21-.09.32s-.05.16-.08.24-.09.19-.13.28a1.71,1.71,0,0,1-.13.23,2.07,2.07,0,0,1-.17.24l-.18.22c-.06.07-.13.13-.2.2l-.23.19-.22.15a2.69,2.69,0,0,1-.29.16l-.22.1c-.11,0-.24.08-.36.12l-.2.05a2.91,2.91,0,0,1-.6.06,3.36,3.36,0,0,1-.63-.06,2.29,2.29,0,0,1-.28-.09,2.64,2.64,0,0,1-.3-.1,2.87,2.87,0,0,1-.39-.2L74,37.59a3.47,3.47,0,0,1-.43-.35l0,0A3.19,3.19,0,0,1,72.6,35V35a3.16,3.16,0,0,1,6.31,0Z"/><path class="cls-1" d="M128.46,105.85a7.35,7.35,0,1,0-10.41,6.67v62.12a7.35,7.35,0,1,0,6.3.54V112.44A7.35,7.35,0,0,0,128.46,105.85Zm-7.35-3.16a3.16,3.16,0,1,1-3.15,3.16A3.17,3.17,0,0,1,121.11,102.69Zm-.48,82a3.16,3.16,0,1,1,3.15-3.16A3.17,3.17,0,0,1,120.63,184.67Z"/><path class="cls-1" d="M148.56,174.94V99.19a4.66,4.66,0,0,0-1.36-3.29L125.71,74.43a4.66,4.66,0,0,1-1.36-3.29V41.58a7.35,7.35,0,1,0-6.3,0V73.75A4.65,4.65,0,0,0,119.42,77L140.9,98.51a4.61,4.61,0,0,1,1.37,3.29v73a7.35,7.35,0,0,0-4.32,6.92,7.45,7.45,0,0,0,7.22,7.13,7.35,7.35,0,0,0,3.39-13.93ZM121.17,31.81a3.16,3.16,0,1,1,0,6.31,3.08,3.08,0,0,1-.61-.06l-.23-.07-.33-.1a2.64,2.64,0,0,1-.29-.15,1.55,1.55,0,0,1-.22-.12,3.55,3.55,0,0,1-.31-.23l-.13-.11a3.26,3.26,0,0,1-.31-.33l-.06-.07a3.12,3.12,0,0,1-.27-.43l0,0a2.28,2.28,0,0,1-.21-.51h0a3.39,3.39,0,0,1-.13-.57c0-.12,0-.25,0-.38A3.15,3.15,0,0,1,121.17,31.81Zm24.12,152.86a3.16,3.16,0,1,1,3.16-3.16A3.16,3.16,0,0,1,145.29,184.67Z"/><path class="cls-1" d="M195.12,174.54V41.94a7.36,7.36,0,1,0-6.3-.81V175.34a7.38,7.38,0,0,0-3,4.08H173.64a7.34,7.34,0,0,0-3.12-4.12V41.17a7.34,7.34,0,1,0-6.3.75V174.56a7.35,7.35,0,1,0,8.41,11.15h14.15a7.35,7.35,0,1,0,8.34-11.17ZM192.81,31.81a3.14,3.14,0,0,1,2.31,5.29,3.31,3.31,0,0,1-1,.73h0a3.31,3.31,0,0,1-.53.18l-.09,0a3.51,3.51,0,0,1-.66.07,3.18,3.18,0,0,1-.62-.06l-.27-.08-.31-.1a2,2,0,0,1-.35-.19.91.91,0,0,1-.17-.09,3,3,0,0,1-.39-.31l-.07,0a3.15,3.15,0,0,1-1-2.12h0s0-.1,0-.16A3.15,3.15,0,0,1,192.81,31.81ZM163.45,35a3.16,3.16,0,1,1,3.15,3.16,2.93,2.93,0,0,1-.67-.08l-.12,0a2.92,2.92,0,0,1-.52-.19l-.06,0a2.8,2.8,0,0,1-.52-.32h0a5.11,5.11,0,0,1-.48-.45h0A3.19,3.19,0,0,1,163.45,35Zm3.15,149.71a3.16,3.16,0,1,1,3.16-3.16A3.16,3.16,0,0,1,166.6,184.67Zm26.21,0a3.16,3.16,0,1,1,3.16-3.16A3.16,3.16,0,0,1,192.81,184.67Z"/><path class="cls-1" d="M72.55,156.61V175a7.36,7.36,0,1,0,6.3-.16v-18a7.35,7.35,0,1,0-6.3-.16ZM79,150.06a3.16,3.16,0,1,1-3.16-3.16A3.16,3.16,0,0,1,79,150.06Zm-6.31,31.45a3.16,3.16,0,1,1,3.15,3.16A3.15,3.15,0,0,1,72.72,181.51Z"/><path class="cls-2" d="M206.47,216.48H16.71A16.73,16.73,0,0,1,0,199.77V16.71A16.73,16.73,0,0,1,16.71,0H206.47a16.73,16.73,0,0,1,16.71,16.71V199.77A16.73,16.73,0,0,1,206.47,216.48ZM16.71,11.52a5.2,5.2,0,0,0-5.19,5.19V199.77A5.19,5.19,0,0,0,16.71,205H206.47a5.18,5.18,0,0,0,5.18-5.18V16.71a5.19,5.19,0,0,0-5.18-5.19Z"/></g></g></svg>